HIERARCHY
ROOT Hips
{
     OFFSET 24.87420 93.25000 -46.27080
     CHANNELS 6 Xposition Yposition Zposition Zrotation Xrotation Yrotation
     JOINT Spine
     {
          OFFSET -0.00000 11.89050 0.00000
          CHANNELS 3 Zrotation Xrotation Yrotation
          JOINT Spine1
          {
               OFFSET -0.00000 25.65740 0.12766
               CHANNELS 3 Zrotation Xrotation Yrotation
               JOINT HEad
               {
                    OFFSET 0.00000 8.73416 0.01134
                    CHANNELS 3 Zrotation Xrotation Yrotation
                    End Site
                    {
                         OFFSET -0.29000 12.77420 2.51395
                    }
               }
               JOINT LeftShoulder1
               {
                    OFFSET 8.99000 -0.36225 -0.22000
                    CHANNELS 3 Zrotation Xrotation Yrotation
                    JOINT LeftArm
                    {
                         OFFSET 10.28270 -0.00338 0.32212
                         CHANNELS 3 Zrotation Xrotation Yrotation
                         JOINT LeftForeArm
                         {
                              OFFSET 32.76690 0.09914 -1.42434
                              CHANNELS 3 Zrotation Xrotation Yrotation
                              JOINT LeftHand
                              {
                                   OFFSET 27.56430 0.08536 1.02216
                                   CHANNELS 3 Zrotation Xrotation Yrotation
                                   End Site
                                   {
                                        OFFSET 16.74430 -0.60000 1.50291
                                   }
                              }
                         }
                    }
               }
               JOINT RightShoulder
               {
                    OFFSET -8.99000 -0.36225 -0.22000
                    CHANNELS 3 Zrotation Xrotation Yrotation
                    JOINT RightArm
                    {
                         OFFSET -10.28270 -0.00338 0.32212
                         CHANNELS 3 Zrotation Xrotation Yrotation
                         JOINT RightForeArm
                         {
                              OFFSET -32.89710 0.09914 -1.42434
                              CHANNELS 3 Zrotation Xrotation Yrotation
                              JOINT RightHand
                              {
                                   OFFSET -27.49210 0.08536 1.02216
                                   CHANNELS 3 Zrotation Xrotation Yrotation
                                   End Site
                                   {
                                        OFFSET -16.63120 -0.60000 1.50291
                                   }
                              }
                         }
                    }
               }
          }
     }
     JOINT LeftUpLeg
     {
          OFFSET 8.94580 -8.66707 0.10165
          CHANNELS 3 Zrotation Xrotation Yrotation
          JOINT LeftLeg
          {
               OFFSET 0.00000 -44.42270 1.37270
               CHANNELS 3 Zrotation Xrotation Yrotation
               JOINT LeftFoot
               {
                    OFFSET -0.25355 -42.09240 -1.46059
                    CHANNELS 3 Zrotation Xrotation Yrotation
                    JOINT LeftToes
                    {
                         OFFSET -0.04000 -4.41509 8.49910
                         CHANNELS 3 Zrotation Xrotation Yrotation
                         End Site
                         {
                              OFFSET 0.08000 -0.04745 9.77979
                         }
                    }
               }
          }
     }
     JOINT RightUpLeg
     {
          OFFSET -8.94580 -8.66707 0.10165
          CHANNELS 3 Zrotation Xrotation Yrotation
          JOINT RightLeg
          {
               OFFSET 0.00000 -44.42270 1.37270
               CHANNELS 3 Zrotation Xrotation Yrotation
               JOINT RightFoot
               {
                    OFFSET 0.25355 -42.09240 -1.46059
                    CHANNELS 3 Zrotation Xrotation Yrotation
                    JOINT RightToes
                    {
                         OFFSET 0.04000 -4.41509 8.49910
                         CHANNELS 3 Zrotation Xrotation Yrotation
                         End Site
                         {
                              OFFSET -0.08000 -0.13745 9.77979
                         }
                    }
               }
          }
     }
}
MOTION
Frames: 19
Frame Time: 0.01667
29.36030 87.55040 42.64380 -8.62967 23.80180 174.93600 14.12230 10.86600 10.57680 14.09940 25.92760 23.87190 -28.92670 -2.60902 3.76620 -0.00000 0.00000 -0.00000 45.67290 -52.78960 30.73050 -29.86370 47.83760 -119.64200 11.71450 10.03000 5.72869 -8.96849 -0.81624 25.14710 79.45940 -25.34020 47.58750 -5.53190 27.18350 97.10680 14.22420 10.57180 0.87252 -4.93589 -5.33747 -14.85180 -12.93080 -3.54287 16.43240 -15.35280 31.09980 5.02263 11.90910 -5.69449 -69.92920 -44.57060 24.47020 19.13140 48.69430 19.06430 -59.95090 -25.71710 -20.61760 -3.30687 2.19052 -31.35080 -3.11781 
29.59590 87.42140 42.78260 -8.53571 23.67620 175.15401 14.44250 10.69110 10.01190 14.29180 25.69120 22.79240 -26.88890 -3.80709 -4.57930 -0.00000 0.00000 -0.00000 42.47880 -52.15760 26.83180 -37.38430 49.86100 -113.07700 13.15910 10.01920 5.46264 -8.92671 -0.78237 24.49130 78.56900 -22.62620 49.50350 -6.07803 27.00490 97.55070 14.44690 10.61410 1.11805 -4.72215 -5.32335 -13.61980 -12.92380 -3.56592 14.93350 -15.13240 30.45350 4.86247 12.14680 -4.50623 -68.60060 -44.21580 24.28990 18.83480 48.96770 19.58720 -59.81580 -25.13880 -20.72270 -3.26145 2.19180 -31.38020 -3.12038 
29.73640 87.39760 42.92540 -8.19014 23.54090 174.70100 14.69900 10.66950 9.48244 14.55830 25.69080 21.70930 -23.73910 -4.47698 -10.09860 -0.00000 0.00000 -0.00000 40.99600 -51.87520 24.71870 -43.84280 50.83270 -106.67600 12.94230 10.59510 10.94670 -8.72037 -0.70659 23.68960 77.68150 -20.48790 51.40910 -6.49798 27.00160 98.33680 14.70630 10.64670 1.26977 -4.38119 -5.35560 -12.77290 -12.83760 -3.58045 13.97940 -14.49050 29.59450 4.53893 12.35080 -3.35365 -67.32930 -43.94960 23.86960 18.69880 49.14210 19.86320 -59.35260 -24.68950 -20.67690 -3.19514 2.21344 -31.29800 -2.93736 
29.79880 87.46870 43.03980 -7.62518 23.36090 173.55400 14.90090 10.77530 9.00855 14.83290 25.88460 20.68040 -20.22770 -4.85497 -13.39830 -0.00000 0.00000 -0.00000 40.66450 -52.14530 23.96110 -55.98510 51.75400 -95.49520 14.01500 11.50520 18.30390 -8.36402 -0.59914 22.82490 76.99240 -18.84700 53.25180 -6.84266 27.05740 99.23970 14.91270 10.66570 1.33531 -3.83031 -5.48297 -12.52050 -12.72660 -3.58033 14.03530 -13.70250 28.57640 4.16039 12.53230 -2.40727 -66.46250 -43.76120 23.15910 18.72340 49.19130 19.94830 -58.68510 -24.48420 -20.47940 -3.12338 2.28878 -31.32100 -2.42228 
29.81000 87.61170 43.07920 -6.87174 23.08580 171.74600 15.05620 10.96470 8.59189 15.04310 26.19940 19.72860 -16.86980 -5.04611 -15.23770 -0.00000 0.00000 -0.00000 40.94210 -52.99780 24.02380 -102.93700 43.22080 -58.36390 27.10990 12.35310 14.96460 -7.89355 -0.47337 21.95880 76.64910 -17.57150 54.99030 -7.18093 27.08720 100.07600 14.94900 10.67090 1.36057 -2.98254 -5.73267 -12.95170 -12.68720 -3.56210 15.28540 -12.90920 27.40340 3.77854 12.63850 -1.83745 -65.96390 -43.61120 22.14870 18.85950 49.09970 19.91680 -57.84220 -24.55280 -20.13530 -3.05044 2.43419 -31.57810 -1.53939 
29.80050 87.81200 43.01400 -5.98135 22.68110 169.37601 15.14640 11.20070 8.22292 15.12650 26.56740 18.85460 -13.95320 -5.08126 -16.19610 -0.00000 0.00000 -0.00000 41.44130 -54.42290 24.44340 -151.14700 -1.53057 -38.50380 37.88690 4.23012 -12.54370 -7.29515 -0.33007 21.13310 76.66450 -16.57740 56.58250 -7.56146 27.05820 100.77200 14.76810 10.66050 1.35003 -1.83926 -6.07642 -13.93900 -12.74140 -3.52715 17.48560 -12.29130 26.05080 3.44792 12.66100 -1.49939 -65.48440 -43.45360 20.86620 19.05670 48.86260 19.83660 -56.77630 -24.81270 -19.67170 -2.97054 2.63387 -31.99800 -0.41563 
29.79620 88.07310 42.84850 -5.02723 22.14560 166.60001 15.11650 11.46970 7.88141 15.04880 26.95050 18.03170 -11.59710 -4.94753 -16.67740 -0.00000 0.00000 -0.00000 41.91590 -56.38680 24.86550 -157.86000 -11.68870 -39.88910 36.58960 2.89954 -17.17670 -6.53058 -0.16418 20.36490 76.93240 -15.83720 58.02180 -7.95618 26.97780 101.32000 14.42980 10.63190 1.25996 -0.60502 -6.76610 -15.15680 -12.78720 -2.77444 20.09580 -12.26860 24.17940 3.24891 12.71010 -0.86908 -64.66190 -43.24770 19.37620 19.30500 48.47470 19.72780 -55.44840 -25.12330 -19.09340 -2.86652 2.84357 -32.43850 0.69647 
29.80570 88.37930 42.59410 -4.00800 21.48450 163.56000 14.98540 11.74860 7.53806 14.82110 27.32140 17.20590 -9.83191 -4.63117 -16.94220 -0.00000 0.00000 -0.00000 42.22280 -58.81250 25.05800 -155.01900 -10.41160 -39.86080 36.31140 3.82319 -14.56730 -5.61497 0.01931 19.63690 77.34210 -15.32360 59.36450 -8.30335 26.87530 101.74000 14.10130 10.59260 1.07846 0.65506 -7.61610 -16.30070 -12.72390 -1.51787 22.66350 -12.95800 21.98160 3.20374 12.88870 0.50496 -63.33700 -42.90920 17.75700 19.58540 47.95090 19.61630 -53.86250 -25.37220 -18.38200 -2.72087 3.01855 -32.86040 1.53927 
29.84630 88.77190 42.30860 -3.07145 20.74050 160.46899 14.56390 12.07670 7.15636 14.47330 27.67940 16.29470 -8.67721 -4.14702 -17.14530 -0.00000 0.00000 -0.00000 42.22300 -61.59450 24.84170 -152.42799 -9.31983 -39.71970 34.28360 4.86247 -12.39820 -4.62791 0.20381 18.92070 77.82270 -14.99570 60.67720 -8.58540 26.78960 102.09200 13.96290 10.55980 0.87178 1.91307 -8.11799 -17.23570 -12.56850 -0.81121 25.08710 -13.82080 20.13250 3.21511 13.12100 2.38958 -61.69720 -42.49180 16.10980 19.94690 47.26440 19.38130 -52.13520 -25.52680 -17.43550 -2.50634 3.15099 -33.37420 2.01630 
29.91260 89.20170 41.99750 -2.17664 19.92460 157.42900 13.94270 12.41040 6.70796 14.06260 27.98360 15.23410 -8.12596 -3.56830 -17.38810 -0.00000 0.00000 -0.00000 41.66980 -64.65680 23.96670 -154.84700 -13.88400 -40.41560 29.98320 5.19429 -13.70500 -3.64899 0.37387 18.18170 78.28990 -14.80930 61.98770 -8.80932 26.75590 102.46200 14.04150 10.54580 0.73375 3.20001 -8.40579 -17.86530 -12.42650 -0.42613 27.46660 -14.25410 18.74790 3.15635 13.21700 3.81705 -60.28550 -41.96760 14.51210 20.32490 46.47690 19.06040 -50.33870 -25.60620 -16.26310 -2.22885 3.27238 -34.12090 2.24448 
30.00090 89.64370 41.67610 -1.32520 19.09050 154.52299 13.15210 12.73420 6.18133 13.61950 28.22580 14.00280 -8.05464 -3.03603 -17.77680 -0.00000 0.00000 -0.00000 40.05260 -67.95810 21.93720 -169.02800 -29.30350 -46.10610 21.39270 5.68387 -18.68750 -2.71120 0.52174 17.33260 78.64140 -14.69510 63.31850 -8.98472 26.78320 102.92000 14.18040 10.54950 0.71478 4.52367 -8.45322 -18.14040 -12.37070 -0.40900 29.89780 -13.76810 18.02550 2.96068 13.07170 3.86509 -59.64320 -41.37700 13.04770 20.71230 45.62930 18.67020 -48.50560 -25.65700 -14.92670 -1.90914 3.41230 -35.07910 2.41828 
30.10270 90.09810 41.36320 -0.51356 18.30130 151.77100 12.18060 13.05790 5.59591 13.13980 28.42990 12.64160 -8.20862 -2.71388 -18.44010 -0.00000 0.00000 -0.00000 36.39810 -71.41070 17.80990 152.65300 -48.46150 -72.04580 7.27744 8.55118 -19.16090 -1.81033 0.64270 16.24510 78.82170 -14.55650 64.73150 -9.16339 26.84010 103.50300 14.18000 10.56040 0.79999 5.85440 -8.20347 -18.04780 -12.38240 -0.79354 32.29390 -12.30340 17.98630 2.62620 12.67910 2.34782 -59.88130 -40.77200 11.78050 21.16830 44.73430 18.17760 -46.63090 -25.75570 -13.48110 -1.56589 3.58739 -36.12120 2.69992 
30.20350 90.58090 41.07160 0.25628 17.59050 149.14301 10.97770 13.40310 4.99134 12.58450 28.63280 11.21880 -8.27789 -2.68931 -19.47300 -0.00000 0.00000 -0.00000 29.17280 -74.78990 10.08970 114.93500 -49.64240 -102.41600 -1.77871 10.23910 -11.53250 -0.94370 0.73085 14.87150 78.86630 -14.33640 66.29910 -9.41767 26.87460 104.20300 13.93750 10.56490 0.92102 7.13573 -7.61901 -17.63820 -12.37620 -1.58518 34.39860 -10.17970 18.51510 2.19302 12.06340 -0.30171 -60.72700 -40.21390 10.74440 21.77460 43.78500 17.46290 -44.72910 -26.01980 -11.88300 -1.19133 3.82342 -37.24310 3.19422 
30.28470 91.10540 40.78940 0.95783 16.99360 146.58501 9.44965 13.79350 4.40511 11.88910 28.85850 9.78906 -7.97886 -2.91120 -20.87290 -0.00000 0.00000 -0.00000 16.32950 -77.67910 -3.22351 100.39200 -45.93650 -114.76300 -4.84004 10.29570 -4.03119 -0.11830 0.78437 13.31080 78.86260 -14.06550 68.03760 -9.75971 26.85770 104.94900 13.50500 10.55450 0.99728 8.28813 -6.67419 -17.10770 -12.28790 -2.77924 35.93850 -7.87661 19.42520 1.72373 11.27500 -3.50593 -61.86610 -39.80690 9.97174 22.56770 42.76400 16.38710 -42.79630 -26.52620 -10.05550 -0.76007 4.13182 -38.51260 3.86882 
30.31630 91.58290 40.41390 1.69589 16.52510 143.95599 7.73691 14.19610 3.86380 10.99940 29.09100 8.40841 -7.11298 -3.25363 -22.55640 -0.00000 0.00000 -0.00000 -3.67040 -79.45280 -23.59430 95.84300 -43.64360 -119.59900 -5.65463 10.02920 1.87878 0.67308 0.80914 11.70840 78.86890 -13.80130 69.89710 -10.15940 26.78760 105.64200 13.03930 10.53210 0.99020 9.18539 -5.97309 -16.76810 -12.16480 -2.92397 36.74500 -6.29160 19.87110 1.37140 10.33590 -6.97967 -63.14940 -39.58140 9.43553 23.44420 41.72320 15.13990 -40.75010 -27.16370 -8.12864 -0.28945 4.46937 -39.85800 4.53396 
30.25610 91.87420 39.81350 2.75883 15.89920 141.03400 6.49873 14.43140 3.36271 10.00170 29.24770 7.16515 -5.61893 -3.63044 -24.42160 -0.00000 0.00000 -0.00000 -27.91900 -79.47670 -48.00190 94.99340 -42.53300 -121.96000 -5.66939 9.78390 6.33916 1.43580 0.81206 10.16460 78.89950 -13.57050 71.79920 -10.63040 26.66400 106.21500 12.67570 10.50520 0.90358 10.01490 -6.52784 -16.84320 -12.17970 0.01966 36.79280 -6.36203 18.85030 1.33768 9.14500 -10.90760 -64.57050 -39.19890 8.90648 24.10110 40.73930 14.13580 -38.48760 -27.75630 -6.33414 0.16747 4.76414 -41.10270 4.99988 
30.14370 92.15260 39.04500 3.83612 15.24480 137.82201 5.15272 14.64450 2.96780 8.82797 29.39530 6.12528 -3.59227 -4.01520 -26.36530 -0.00000 0.00000 -0.00000 -48.87010 -77.70040 -68.76440 95.77500 -42.15400 -123.37800 -5.38184 9.62501 9.45189 2.12101 0.79586 8.75669 78.96780 -13.39440 73.66490 -11.21950 26.49100 106.64700 12.46060 10.47790 0.74904 10.74630 -7.49365 -17.58490 -12.54210 4.19035 36.35560 -7.44244 17.05430 1.48146 7.53210 -15.59050 -66.11340 -38.95290 8.42576 24.69430 39.68690 12.94070 -36.05470 -28.30700 -4.50236 0.65097 4.97302 -42.12210 5.21322 
29.99030 92.42390 38.05810 4.93422 14.49620 134.20599 3.73686 14.81930 2.70178 7.52398 29.51710 5.32347 -1.24915 -4.38377 -28.26500 -0.00000 0.00000 -0.00000 -63.21170 -74.71680 -82.44860 97.48050 -42.32260 -124.25300 -5.00981 9.55004 11.29810 2.63582 0.76207 7.54125 79.09060 -13.27410 75.42910 -11.95580 26.28670 106.95400 12.38560 10.44980 0.53070 11.56790 -8.09663 -18.96230 -13.28700 8.01610 35.73050 -8.80280 15.14750 1.64002 5.48015 -20.84890 -67.68800 -38.83780 7.93961 25.23460 38.56760 11.48860 -33.38340 -28.76730 -2.59616 1.16705 5.08553 -42.84280 5.21846 
29.81580 92.70550 36.81250 6.03336 13.60170 130.16100 2.26903 14.93720 2.55618 6.15606 29.58430 4.71927 1.14118 -4.70538 -29.99520 -0.00000 0.00000 -0.00000 -72.43350 -71.14160 -90.47470 99.84950 -43.00370 -124.57700 -4.67318 9.54036 11.94010 2.92894 0.71470 6.51441 79.23200 -13.14360 77.03410 -12.85050 26.06360 107.19400 12.44200 10.41820 0.23144 12.41430 -8.21978 -20.81060 -14.34480 11.31800 35.23080 -10.12100 13.24660 1.74683 3.24378 -25.94490 -69.25800 -38.86950 7.48565 25.71930 37.35640 9.63675 -30.25710 -29.02800 -0.54123 1.72435 5.09084 -43.13640 5.07025 
